<svg width="265" height="265" viewBox="0 0 265 265" fill="none" xmlns="http://www.w3.org/2000/svg">
<path d="M121.5 6.35085C128.307 2.42093 136.693 2.42093 143.5 6.35085L236.248 59.8991C243.055 63.8291 247.248 71.0919 247.248 78.9517V186.048C247.248 193.908 243.055 201.171 236.248 205.101L143.5 258.649C136.693 262.579 128.307 262.579 121.5 258.649L28.7516 205.101C21.9448 201.171 17.7516 193.908 17.7516 186.048V78.9517C17.7516 71.0919 21.9448 63.8291 28.7516 59.8991L121.5 6.35085Z" fill="#292F3F"/>
<path d="M200 159H66C70.8 178.6 87.3333 186.833 95 188.5H170C188 183.3 197.5 166.667 200 159Z" fill="white"/>
<path d="M98.7969 97.4999C97.5969 92.6999 94.6302 86.6667 93.2969 85C100.297 85 106.797 88.502 108.297 97.002C109.957 106.411 102.797 112 100.297 124C98.2969 133.6 102.13 142 104.297 145C86.7969 140.5 91.4898 123.075 91.7969 122C92.7969 118.5 96.7969 111.5 96.7969 111C96.7969 110.5 100.297 103.5 98.7969 97.4999Z" fill="white"/>
<path d="M163.797 97.4999C162.597 92.6999 159.63 86.6667 158.297 85C165.297 85 171.797 88.502 173.297 97.002C174.957 106.411 167.797 112 165.297 124C163.297 133.6 167.13 142 169.297 145C151.797 140.5 156.49 123.075 156.797 122C157.797 118.5 161.797 111.5 161.797 111C161.797 110.5 165.297 103.5 163.797 97.4999Z" fill="white"/>
<path d="M131.222 82.4581C129.648 76.1381 125.759 68.1944 124.011 66C133.188 66 141.71 70.6109 143.676 81.8027C145.853 94.1909 136.466 101.55 133.188 117.35C130.566 129.99 135.592 141.05 138.432 145C115.49 139.075 121.642 116.132 122.045 114.717C123.356 110.108 128.6 100.892 128.6 100.233C128.6 99.575 133.188 90.3581 131.222 82.4581Z" fill="white"/>
</svg>
